<svg xmlns="http://www.w3.org/2000/svg" width="219" height="253" fill="none" viewBox="0 0 219 253"><rect width="125.61" height="125.61" fill="url(#paint0_linear_43_2298)" transform="matrix(0.866025 -0.5 2.20305e-08 1 109.445 126.392)"/><rect width="125.61" height="125.61" fill="url(#paint1_linear_43_2298)" transform="matrix(0.866025 0.5 -2.20305e-08 1 0.664062 63.5859)"/><rect width="38.538" height="3.379" fill="#fff" rx="1" transform="matrix(0.866025 0.5 -2.20305e-08 1 7.03906 168.156)"/><rect width="38.538" height="3.379" fill="#fff" rx="1" transform="matrix(0.866025 0.5 -2.20305e-08 1 7.03906 174.668)"/><rect width="38.538" height="3.379" fill="#fff" rx="1" transform="matrix(0.866025 0.5 -2.20305e-08 1 7.03906 181.18)"/><g style="mix-blend-mode:darken"><path fill="url(#paint2_linear_43_2298)" d="M0.664062 63.5859L105.115 3.28101C107.507 1.9003 111.384 1.9003 113.776 3.28101L218.227 63.5859L109.445 126.391L0.664062 63.5859Z"/></g><g style="mix-blend-mode:screen" opacity=".4"><rect width="125.61" height="125.61" fill="url(#paint3_linear_43_2298)" transform="matrix(0.866025 -0.5 0.866025 0.5 1.07031 109.982)"/></g><g style="mix-blend-mode:screen" opacity=".4"><rect width="125.61" height="125.61" fill="url(#paint4_linear_43_2298)" transform="matrix(0.866025 -0.5 0.866025 0.5 1.07031 155.126)"/></g><rect width="28.392" height="125.61" fill="#fff" rx="1" transform="matrix(0.866025 -0.5 0.866025 0.5 42.7617 39.2817)"/><path fill="#fff" d="M151.438 102.146L176.234 87.83L176.234 137.462C176.234 138.248 175.484 139.16 174.907 139.074L164.297 137.498C164.015 137.456 163.657 137.663 163.375 138.03L152.764 151.859C152.188 152.61 151.438 152.565 151.438 151.778L151.438 102.146Z"/><defs><linearGradient id="paint0_linear_43_2298" x1="149.206" x2="16.427" y1="65.888" y2="160.544" gradientUnits="userSpaceOnUse"><stop stop-color="#FF7C32"/><stop offset="1" stop-color="#CB3068"/></linearGradient><linearGradient id="paint1_linear_43_2298" x1="150.941" x2="-61.211" y1="-35.504" y2="-22.808" gradientUnits="userSpaceOnUse"><stop stop-color="#E7702E"/><stop offset="1" stop-color="#CB3068"/></linearGradient><linearGradient id="paint2_linear_43_2298" x1="173.753" x2="101.395" y1="63.586" y2="-47.907" gradientUnits="userSpaceOnUse"><stop stop-color="#FF7C32"/><stop offset="1" stop-color="#CB3068"/></linearGradient><linearGradient id="paint3_linear_43_2298" x1="99.933" x2="91.246" y1="99.933" y2="-48.755" gradientUnits="userSpaceOnUse"><stop stop-color="#FF7C32"/><stop offset="1" stop-color="#CB3068"/></linearGradient><linearGradient id="paint4_linear_43_2298" x1="99.933" x2="91.246" y1="99.933" y2="-48.755" gradientUnits="userSpaceOnUse"><stop stop-color="#FF7C32"/><stop offset="1" stop-color="#CB3068"/></linearGradient></defs></svg>